<svg width="105" height="22" viewBox="0 0 105 22" fill="none" xmlns="http://www.w3.org/2000/svg">
<path fill-rule="evenodd" clip-rule="evenodd" d="M32.6464 6.09069V4.82552C32.6464 4.64839 32.7729 4.52188 32.95 4.49657H38.4661C38.6432 4.49657 38.7697 4.62309 38.7697 4.80021V4.82552V5.88826C38.6938 6.1919 38.5673 6.44493 38.3649 6.67266L35.5056 10.8224C36.5937 10.7718 37.6817 10.9995 38.6432 11.5056C38.8204 11.6068 38.9216 11.7839 38.9216 11.9864V13.3274C38.9216 13.5046 38.795 13.6311 38.6432 13.6311C38.5926 13.6311 38.5673 13.6311 38.5167 13.6058C36.6949 12.6443 34.5188 12.6443 32.697 13.6058C32.4945 13.707 32.3174 13.5046 32.3174 13.3021V12.037C32.2921 11.7333 32.368 11.4297 32.5198 11.1767L35.8346 6.34372H32.9753C32.7982 6.39433 32.6464 6.26781 32.6464 6.09069ZM10.253 13.6564C10.1012 13.6564 9.94934 13.5299 9.94934 13.3528V4.49657C9.94934 4.31945 10.1012 4.16763 10.2783 4.16763H11.8977C12.0748 4.16763 12.2013 4.29415 12.2266 4.47127V5.63523H12.2519C12.5556 4.62309 13.4918 3.9652 14.5292 3.99051C15.6173 3.99051 16.3005 4.49657 16.7812 5.63523C17.2873 4.31945 18.7802 3.66156 20.0959 4.16763C20.5261 4.31945 20.9057 4.59779 21.184 4.95204C21.7407 5.68583 21.6141 6.77388 21.6141 7.73541V13.3528C21.6141 13.5299 21.4623 13.6817 21.2852 13.6817H19.5393C19.3622 13.6817 19.2356 13.5299 19.2356 13.3781V8.67163C19.2609 8.11496 19.2356 7.55828 19.185 7.00161C19.1091 6.52084 18.6537 6.16659 18.1729 6.2425C17.7174 6.26781 17.3126 6.54615 17.1355 6.9763C16.9836 7.53298 16.933 8.11496 16.9836 8.67163V13.3528C16.9836 13.5299 16.8318 13.6817 16.6547 13.6817H14.9088C14.7317 13.6817 14.6051 13.5299 14.6051 13.3781V8.67163C14.6051 7.6848 14.757 6.2172 13.5424 6.2172C12.3025 6.2172 12.3532 7.63419 12.3532 8.67163V13.3528C12.3532 13.5299 12.2013 13.6817 12.0242 13.6817C12.0242 13.6817 12.0242 13.6817 11.9989 13.6817H10.253V13.6564ZM43.3496 4.01581C45.9306 4.01581 47.3222 6.1666 47.3222 8.92466C47.3222 11.5815 45.7787 13.6817 43.3496 13.6817C40.8193 13.6817 39.4276 11.5309 39.4276 8.82345C39.4276 6.11599 40.8193 4.01581 43.3496 4.01581ZM41.9833 8.54511C41.9833 9.60785 41.9833 11.8852 43.3496 11.8852C44.716 11.8852 44.7666 10.0633 44.7666 8.92466C44.7919 8.14026 44.716 7.38116 44.5136 6.62206C44.4124 6.09068 43.9063 5.73644 43.3749 5.78705C42.0592 5.78705 41.9833 7.48237 41.9833 8.54511ZM50.7382 13.6564H49.1441C48.9923 13.6564 48.8657 13.5046 48.8657 13.3528V4.49657C48.891 4.31945 49.0176 4.19293 49.1694 4.21824H50.6623C50.7888 4.21824 50.9153 4.31945 50.9406 4.47127V5.81235H50.9659C51.4214 4.59779 52.0539 4.04111 53.1673 4.04111C53.9264 3.99051 54.6349 4.39536 55.0397 5.07855C55.4699 5.78705 55.4699 6.9763 55.4699 7.83662V13.4287C55.4446 13.5805 55.3181 13.707 55.1662 13.707H53.5468C53.395 13.707 53.2685 13.5805 53.2685 13.4287V8.64632C53.2685 7.65949 53.3697 6.26781 52.2564 6.26781C51.8515 6.29311 51.4973 6.57145 51.3455 6.9763C51.143 7.50768 51.0671 8.08965 51.0924 8.64632V13.3528C51.0671 13.5299 50.9153 13.6817 50.7382 13.6564ZM29.9136 13.5299C29.8124 13.6311 29.6353 13.6311 29.5088 13.5805C29.1292 13.2768 28.8003 12.8973 28.5472 12.4418C27.864 13.2768 26.8266 13.7323 25.7386 13.6817C24.271 13.6817 23.1829 12.7961 23.1829 11.0501C23.1576 9.83558 23.8661 8.74754 25.0048 8.29208C25.941 7.88723 27.2315 7.81131 28.2183 7.7101V7.48237C28.2689 7.05221 28.193 6.64736 28.0159 6.26781C27.7881 5.96417 27.4086 5.81235 27.0543 5.83765C26.3965 5.78705 25.8145 6.2172 25.688 6.84979C25.6627 7.00161 25.5361 7.12812 25.3843 7.15343L23.7396 6.9763C23.5878 6.951 23.4613 6.77388 23.5119 6.62206C23.8914 4.62309 25.688 4.04111 27.3327 4.04111C28.2689 4.01581 29.1545 4.31945 29.8883 4.87612C30.7233 5.63523 30.6474 6.67266 30.6474 7.78601V10.4176C30.6474 10.9995 30.8751 11.5562 31.28 11.9864C31.4065 12.1129 31.4065 12.3153 31.28 12.4418C30.8498 12.6949 30.2425 13.2262 29.9136 13.5299ZM28.2436 9.45604V9.10179C27.0037 9.10179 25.7133 9.35482 25.7133 10.7212C25.7133 11.4297 26.0928 11.8852 26.7507 11.8852C27.2568 11.8599 27.7122 11.5815 27.94 11.1514C28.193 10.62 28.2942 10.038 28.2436 9.45604ZM7.52023 13.5299C7.41902 13.6311 7.2419 13.6311 7.11538 13.5805C6.73583 13.2768 6.40689 12.872 6.15386 12.4671C5.47067 13.3021 4.43324 13.7576 3.3452 13.707C1.90291 13.707 0.789571 12.8214 0.789571 11.0754C0.738964 9.86089 1.47276 8.77284 2.6114 8.31738C3.52232 7.91253 4.81279 7.83662 5.79961 7.73541V7.50767C5.85022 7.07752 5.77431 6.67266 5.59719 6.29311C5.36946 5.98947 5.01521 5.83765 4.63566 5.86295C4.00308 5.81235 3.42111 6.2425 3.26929 6.87509C3.24399 7.02691 3.14277 7.15343 2.96565 7.17873L1.32094 7.00161C1.16912 6.9763 1.06791 6.79918 1.09321 6.64736C1.47276 4.64839 3.26929 4.06642 4.8887 4.06642C5.82492 4.04111 6.71053 4.31945 7.44432 4.90143C8.27933 5.66053 8.20342 6.69797 8.20342 7.81132V10.4429C8.20342 11.0248 8.43115 11.5815 8.836 12.0117C8.96252 12.1382 8.96252 12.3153 8.836 12.4418C8.48176 12.6949 7.84918 13.2262 7.52023 13.5299ZM5.85022 9.10179C4.61036 9.10179 3.3199 9.35482 3.3199 10.7212C3.3199 11.4297 3.69944 11.8852 4.35733 11.8852C4.86339 11.8599 5.31885 11.5815 5.52128 11.1514C5.79961 10.62 5.90083 10.038 5.85022 9.43073V9.10179ZM23.0311 21.045C17.6921 21.0703 12.5303 18.9954 8.55767 15.1999C8.25403 14.9216 8.53236 14.5167 8.88661 14.7444C13.3147 17.4013 18.2994 18.8183 23.4107 18.793C27.2062 18.7677 30.951 17.958 34.4682 16.4145C34.9996 16.1614 35.455 16.794 34.9236 17.1989C31.6848 19.7039 27.029 21.045 23.0311 21.045ZM36.1635 15.6807C35.7587 15.1493 33.4055 15.4276 32.3427 15.5541C32.0138 15.5794 31.9632 15.3011 32.2668 15.0987C34.1392 13.7576 37.2009 14.1372 37.5552 14.5926C37.9094 15.0481 37.454 18.1604 35.7081 19.6533C35.4297 19.881 35.1767 19.7545 35.3032 19.4509C35.6827 18.464 36.5684 16.212 36.1635 15.6807ZM90.11 12.1888C90.439 11.9611 90.6161 11.5815 90.6161 11.202C90.6161 10.9489 90.5149 10.6706 90.3378 10.4935C90.0341 10.2404 89.6546 10.0633 89.275 9.9621L87.6809 9.38012C86.2892 8.89936 85.6061 8.03904 85.6061 6.87509C85.5807 6.14129 85.935 5.4328 86.5423 4.97734C87.2508 4.47127 88.1364 4.21824 89.022 4.26884C89.8317 4.26884 90.6414 4.42066 91.4005 4.6737C91.527 4.699 91.6282 4.77491 91.7294 4.85082C91.8053 4.95203 91.8306 5.07855 91.8306 5.20507V5.68583C91.8306 5.88826 91.7547 6.01478 91.5776 6.01478C91.4258 6.01478 91.274 5.96417 91.1475 5.91356C90.4896 5.73644 89.8064 5.63523 89.1232 5.63523C87.9339 5.63523 87.3267 6.01478 87.3267 6.79918C87.3014 7.07752 87.4279 7.35585 87.6303 7.53298C87.9846 7.78601 88.3894 7.98844 88.8196 8.11496L90.3124 8.64632C90.8944 8.84875 91.4511 9.203 91.8813 9.63316C92.2102 10.038 92.3873 10.5694 92.3873 11.1008C92.4126 11.8852 92.0584 12.6443 91.4005 13.125C90.6414 13.6564 89.7052 13.9347 88.7437 13.8841C87.7821 13.9094 86.8206 13.7323 85.9097 13.3781C85.7832 13.3275 85.682 13.2768 85.6061 13.1756C85.5554 13.0744 85.5048 12.9479 85.5301 12.8214V12.3153C85.5301 12.1129 85.606 11.9864 85.7579 11.9864C85.9097 12.0117 86.0868 12.037 86.2386 12.0876C87.0736 12.3406 87.9339 12.4671 88.7943 12.4671C89.1991 12.5683 89.7052 12.4418 90.11 12.1888ZM81.8612 4.62309C81.8359 4.44597 81.9624 4.26884 82.1395 4.24354C82.1648 4.24354 82.1901 4.24354 82.2154 4.24354H83.2782C83.4553 4.21824 83.6071 4.34475 83.6324 4.52188C83.6324 4.54718 83.6324 4.57248 83.6324 4.62309V13.2515C83.6577 13.4287 83.5312 13.6058 83.3541 13.6311C83.3288 13.6311 83.3035 13.6311 83.2528 13.6311H82.5191C82.4178 13.6311 82.3166 13.6058 82.2407 13.5552C82.1648 13.4793 82.1142 13.3781 82.0889 13.2768L81.9624 12.619C80.9756 13.4287 79.761 13.8588 78.4705 13.9094C77.7367 13.96 77.0029 13.6817 76.4716 13.1756C75.9908 12.5937 75.7378 11.8346 75.7884 11.0754V4.62309C75.7631 4.44597 75.8896 4.26884 76.0667 4.24354C76.092 4.24354 76.1173 4.24354 76.1426 4.24354H77.2054C77.3825 4.21824 77.5343 4.34475 77.5596 4.52188C77.5596 4.54718 77.5596 4.57248 77.5596 4.62309V10.4935C77.509 11.0248 77.6608 11.5309 77.9392 11.9611C78.2428 12.3153 78.6983 12.4924 79.1537 12.4418C80.0899 12.4165 81.0262 12.1129 81.7853 11.5562L81.8612 4.62309ZM72.0688 13.6564C71.8917 13.6817 71.7146 13.5552 71.6893 13.3781C71.6893 13.3528 71.6893 13.3274 71.6893 13.2768V7.27994C71.7146 6.79918 71.6134 6.31842 71.335 5.91356C71.0567 5.60992 70.6518 5.4328 70.2217 5.4834C69.2602 5.50871 68.3239 5.78704 67.5142 6.31842C67.5142 6.41963 67.5142 6.49554 67.5142 6.59675V13.3021C67.5395 13.4793 67.413 13.6564 67.2359 13.6817C67.2106 13.6817 67.1853 13.6817 67.1347 13.6817H66.0466C65.8695 13.707 65.6924 13.5805 65.6671 13.4034C65.6671 13.3781 65.6671 13.3528 65.6671 13.3021V7.30525C65.6924 6.82449 65.5912 6.34372 65.3128 5.93887C65.0345 5.63522 64.6297 5.4581 64.1995 5.50871C63.238 5.50871 62.3018 5.78704 61.5174 6.31842V13.3021C61.5427 13.4793 61.4161 13.6564 61.239 13.6817C61.2137 13.6817 61.1884 13.6817 61.1378 13.6817H60.0498C59.8727 13.707 59.6955 13.5805 59.6955 13.4034C59.6955 13.3781 59.6955 13.3528 59.6955 13.3021V4.6737C59.6702 4.49657 59.7967 4.34475 59.9739 4.29415C59.9992 4.29415 60.0245 4.29415 60.0751 4.29415H60.8848C60.986 4.29415 61.0872 4.31945 61.1631 4.37006C61.239 4.44597 61.2896 4.54718 61.3149 4.6484L61.4161 5.23037C62.403 4.47127 63.6175 4.06642 64.8574 4.01581C65.996 4.01581 66.7551 4.44597 67.1853 5.33159C68.2227 4.52188 69.4879 4.06642 70.829 4.01581C71.5374 3.9652 72.2459 4.24354 72.7773 4.7243C73.2581 5.30628 73.5111 6.04008 73.4605 6.77388V13.2768C73.4858 13.454 73.3593 13.6311 73.1822 13.6564C73.1569 13.6564 73.1316 13.6564 73.0809 13.6564H72.0688ZM100.206 6.54615C99.7506 7.05222 99.5228 7.88722 99.5228 9.02587V9.25361C99.5228 10.367 99.7506 11.1767 100.206 11.6827C100.788 12.2394 101.572 12.543 102.357 12.4671C102.913 12.4671 103.47 12.3659 104.002 12.2141C104.103 12.1888 104.179 12.1635 104.28 12.1635C104.432 12.1635 104.508 12.29 104.508 12.5177V12.9985C104.508 13.125 104.482 13.2515 104.432 13.3528C104.356 13.454 104.255 13.5046 104.128 13.5552C103.47 13.8335 102.762 13.96 102.053 13.9347C100.611 13.9347 99.5228 13.5299 98.7637 12.6949C98.0046 11.8852 97.6251 10.6959 97.6251 9.12709C97.6251 7.55828 98.0046 6.39433 98.789 5.53401C99.6746 4.6484 100.864 4.19293 102.104 4.26884C102.762 4.26884 103.42 4.39536 104.027 4.62309C104.128 4.64839 104.229 4.7243 104.305 4.80021C104.356 4.90143 104.406 5.02794 104.381 5.17976V5.66053C104.381 5.91356 104.305 6.01478 104.153 6.01478C104.052 6.01478 103.951 5.98947 103.85 5.96417C103.369 5.81235 102.838 5.73644 102.331 5.73644C101.395 5.76174 100.661 6.04008 100.206 6.54615ZM95.5249 4.77491C95.702 4.74961 95.8539 4.87612 95.8792 5.05325C95.8792 5.07855 95.8792 5.10385 95.8792 5.12916V13.5552C95.9045 13.7323 95.778 13.8841 95.6008 13.9094C95.5755 13.9094 95.5502 13.9094 95.4996 13.9094H94.4369C94.2598 13.9347 94.1079 13.8082 94.0826 13.6311C94.0826 13.6058 94.0826 13.5805 94.0826 13.5552V5.12916C94.0573 4.95203 94.1839 4.80022 94.3357 4.77491C94.361 4.77491 94.3863 4.77491 94.4369 4.77491H95.5249ZM95.8286 1.25774C96.2334 1.73851 96.2334 2.447 95.8286 2.92777C95.3478 3.33262 94.6393 3.33262 94.1585 2.92777C93.7537 2.447 93.7537 1.73851 94.1585 1.25774C94.6393 0.852888 95.3478 0.852888 95.8286 1.25774Z" fill="#00071C"/>
</svg>
