<svg width="101" height="22" viewBox="0 0 101 22" fill="none" xmlns="http://www.w3.org/2000/svg">
<path d="M90.7922 6.46316C90.7922 5.9913 91.176 5.60742 91.6559 5.60742C92.1357 5.60742 92.5196 5.98331 92.5196 6.46316C92.5196 6.92701 92.1357 7.31089 91.6559 7.31089C91.176 7.31089 90.7922 6.93501 90.7922 6.46316Z" fill="#00071C"/>
<path d="M92.3997 8.37456V15.6123H90.9121V8.37456H92.3997Z" fill="#00071C"/>
<path fill-rule="evenodd" clip-rule="evenodd" d="M27.7329 12.925H31.5157L32.4194 15.6122H34.0509L30.468 5.67925H28.8046L25.2217 15.6122H26.8212L27.7329 12.925ZM31.1158 11.6934H28.1168L29.5963 7.33473H29.6363L31.1158 11.6934Z" fill="#00071C"/>
<path fill-rule="evenodd" clip-rule="evenodd" d="M38.7768 15.6845C40.5922 15.6845 41.7998 14.2369 41.7998 11.9896C41.7998 9.75033 40.5842 8.29478 38.7448 8.30278C37.7371 8.30278 36.8574 8.80662 36.4415 9.58238H36.4175V8.37476H34.978V18.0038H36.4655V14.4209H36.4975C36.9293 15.2206 37.7451 15.6845 38.7768 15.6845ZM38.3609 9.55839C39.5125 9.55839 40.2723 10.5261 40.2723 11.9896C40.2723 13.4692 39.5125 14.4289 38.3609 14.4289C37.2252 14.4289 36.4575 13.4452 36.4575 11.9896C36.4575 10.5421 37.2252 9.55839 38.3609 9.55839Z" fill="#00071C"/>
<path fill-rule="evenodd" clip-rule="evenodd" d="M49.7667 11.9893C49.7667 14.2366 48.5591 15.6842 46.7436 15.6842C45.712 15.6842 44.8962 15.2203 44.4643 14.4206H44.4324V18.0034H42.9448V8.37443H44.3844V9.58206H44.4084C44.8242 8.8063 45.704 8.30245 46.7116 8.30245C48.5591 8.29446 49.7667 9.75001 49.7667 11.9893ZM48.2392 11.9893C48.2392 10.5258 47.4794 9.55807 46.3278 9.55807C45.1921 9.55807 44.4244 10.5418 44.4244 11.9893C44.4244 13.4449 45.1921 14.4286 46.3278 14.4286C47.4794 14.4286 48.2392 13.4689 48.2392 11.9893Z" fill="#00071C"/>
<path d="M52.4538 5.67925H50.9663V15.6122H52.4538V5.67925Z" fill="#00071C"/>
<path fill-rule="evenodd" clip-rule="evenodd" d="M60.1931 13.4848C59.9932 14.7964 58.7136 15.7001 57.0741 15.7001C54.9708 15.7001 53.6592 14.2925 53.6592 12.0212C53.6592 9.74992 54.9708 8.27837 57.0101 8.27837C59.0095 8.27837 60.2731 9.65395 60.2731 11.8533V12.3651H55.1627V12.4531C55.1627 13.6927 55.9385 14.5004 57.1141 14.5004C57.9378 14.5004 58.5856 14.1086 58.7856 13.4848H60.1931ZM55.1707 11.3254H58.7936C58.7616 10.2138 58.0498 9.486 57.0181 9.486C55.9864 9.486 55.2427 10.2298 55.1707 11.3254Z" fill="#00071C"/>
<path d="M73.1096 8.30243V15.6122H74.5252V5.67925H72.7337L69.5267 13.5168H69.4708L66.2558 5.67925H64.4723V15.6122H65.8799V8.30243H65.9279L68.9269 15.5322H70.0706L73.0616 8.30243H73.1096Z" fill="#00071C"/>
<path d="M82.4421 15.6124H81.0186V14.3647H80.9866C80.5707 15.2285 79.851 15.6923 78.7393 15.6923C77.1638 15.6923 76.1961 14.6767 76.1961 13.0132V8.36661H77.6836V12.7253C77.6836 13.8289 78.2035 14.4127 79.2351 14.4127C80.3068 14.4127 80.9546 13.669 80.9546 12.5413V8.36661H82.4421V15.6124Z" fill="#00071C"/>
<path d="M89.4643 10.4537C89.4243 9.17406 88.2807 8.28633 86.6732 8.28633C84.9937 8.28633 83.8421 9.16606 83.8341 10.4297C83.8341 11.4374 84.4979 12.1012 85.8015 12.4211L87.097 12.741C87.8568 12.9329 88.1287 13.1728 88.1287 13.6207C88.1287 14.1965 87.5689 14.5644 86.6812 14.5644C85.7855 14.5644 85.2256 14.1965 85.1217 13.5007H83.6501C83.7621 14.8283 84.9137 15.7 86.6172 15.7C88.3846 15.7 89.6242 14.8043 89.6242 13.5007C89.6242 12.437 89.0724 11.9012 87.6169 11.5493L86.4013 11.2694C85.6495 11.0775 85.2896 10.7896 85.2896 10.3577C85.2896 9.78987 85.8254 9.42198 86.6332 9.42198C87.4569 9.42198 88.0008 9.81386 88.0647 10.4537H89.4643Z" fill="#00071C"/>
<path d="M97.0969 9.52599C98.0726 9.52599 98.6724 10.0938 98.8004 10.8616H100.216C100.096 9.44601 98.9363 8.27837 97.0809 8.27837C95.0336 8.27837 93.682 9.74192 93.682 11.9892C93.682 14.2925 95.0336 15.7001 97.0969 15.7001C98.8484 15.7001 100.064 14.6764 100.232 13.1569H98.8004C98.6324 13.9966 98.0246 14.4605 97.1049 14.4605C95.9613 14.4605 95.1935 13.5327 95.1935 11.9892C95.1935 10.4857 95.9533 9.52599 97.0969 9.52599Z" fill="#00071C"/>
<path fill-rule="evenodd" clip-rule="evenodd" d="M20.9556 6.51372V7.2335V14.7672V15.4869C20.9556 15.6869 20.9556 15.8948 20.9476 16.0948C20.9317 16.5346 20.9077 16.9745 20.8277 17.4143C20.7477 17.8542 20.6197 18.2701 20.4118 18.67C20.2119 19.0698 19.948 19.4297 19.6361 19.7416C19.3242 20.0535 18.9563 20.3174 18.5644 20.5174C18.1645 20.7253 17.7487 20.8533 17.3088 20.9333C16.8769 21.0132 16.4291 21.0452 15.9892 21.0532C15.7893 21.0612 15.5813 21.0612 15.3814 21.0612H14.6616H7.128H6.40823C6.20829 21.0612 6.00036 21.0612 5.80042 21.0532C5.36056 21.0372 4.9207 21.0132 4.48083 20.9333C4.03298 20.8613 3.6251 20.7253 3.22523 20.5174C2.82536 20.3174 2.46547 20.0535 2.15357 19.7416C1.84167 19.4297 1.57775 19.0618 1.37781 18.67C1.16988 18.2701 1.04192 17.8542 0.961944 17.4143C0.881969 16.9825 0.849979 16.5346 0.841982 16.0948C0.833984 15.8948 0.833984 15.6869 0.833984 15.4869V14.7672V7.2335V6.51372C0.833984 6.41375 0.835984 6.31179 0.837983 6.20982C0.839982 6.10785 0.841982 6.00588 0.841982 5.90591C0.857977 5.46605 0.881969 5.02619 0.961944 4.58632C1.04192 4.13846 1.16988 3.73059 1.37781 3.33071C1.57775 2.93084 1.84167 2.57095 2.15357 2.25904C2.46547 1.94714 2.82536 1.68322 3.22523 1.48328C3.6251 1.27535 4.03298 1.14739 4.48083 1.06741C4.9127 0.987438 5.36056 0.963446 5.80042 0.947451C6.00036 0.939453 6.20829 0.939453 6.40823 0.939453H7.128H14.6616H15.3814C15.4864 0.939453 15.5893 0.941492 15.6913 0.943511C15.7912 0.94549 15.8902 0.947451 15.9892 0.947451C16.4291 0.963446 16.8689 0.987438 17.3088 1.06741C17.7487 1.14739 18.1645 1.27535 18.5644 1.48328C18.9643 1.68322 19.3242 1.94714 19.6361 2.25904C19.948 2.57095 20.2119 2.93883 20.4118 3.33071C20.6197 3.73059 20.7477 4.14646 20.8277 4.58632C20.9077 5.01819 20.9396 5.46605 20.9476 5.90591C20.9556 6.10585 20.9556 6.31379 20.9556 6.51372ZM14.5248 4.09938C14.5808 4.09138 15.0126 4.01941 15.0606 4.01141C15.3805 3.98742 15.5645 4.19535 15.5645 4.54724V14.0243C15.5645 14.2802 15.5645 14.5122 15.5085 14.7681C15.4525 15.016 15.3565 15.2479 15.2126 15.4559C15.0686 15.6638 14.8767 15.8397 14.6608 15.9677C14.4448 16.1037 14.2129 16.1756 13.965 16.2236C13.5011 16.3196 13.1812 16.3356 12.8853 16.2796C12.5974 16.2236 12.3495 16.0877 12.1575 15.9117C11.8616 15.6398 11.6857 15.2879 11.6457 14.912C11.6057 14.4802 11.7497 14.0083 12.0776 13.6644C12.2455 13.4965 12.4534 13.3605 12.7334 13.2485C13.0213 13.1366 13.3412 13.0646 13.837 12.9686C13.901 12.9566 13.967 12.9426 14.0329 12.9286C14.0989 12.9146 14.1649 12.9007 14.2289 12.8887C14.4048 12.8567 14.5488 12.8087 14.6687 12.6647C14.7887 12.5208 14.7887 12.3448 14.7887 12.1689V7.73825C14.7887 7.40236 14.6368 7.30639 14.3089 7.37037C14.0769 7.41835 9.1025 8.41804 9.1025 8.41804C8.82259 8.48202 8.72662 8.56999 8.72662 8.92188V15.4159C8.72662 15.6718 8.71862 15.9037 8.66264 16.1596C8.60666 16.4076 8.51069 16.6395 8.36673 16.8474C8.22278 17.0554 8.03084 17.2313 7.81491 17.3593C7.59898 17.4872 7.36705 17.5672 7.11913 17.6152C6.65527 17.7112 6.33538 17.7272 6.03947 17.6712C5.75156 17.6072 5.50364 17.4712 5.3117 17.2953C5.02379 17.0234 4.85584 16.6715 4.81585 16.2956C4.76787 15.8637 4.90383 15.3919 5.23172 15.048C5.39967 14.88 5.6076 14.7441 5.88752 14.6321C6.17543 14.5201 6.49532 14.4482 6.99117 14.3522C7.05515 14.3402 7.12113 14.3262 7.18711 14.3122C7.25309 14.2982 7.31907 14.2842 7.38304 14.2722C7.55899 14.2402 7.70294 14.1922 7.82291 14.0483C7.94287 13.9043 7.95886 13.7364 7.95886 13.5604V6.07477C7.95886 6.0106 7.96191 5.96166 7.96424 5.9242C7.96569 5.90096 7.96686 5.88214 7.96686 5.86683C7.99085 5.71488 8.05483 5.57892 8.1668 5.48295C8.26277 5.40298 8.38273 5.34699 8.54268 5.315L14.5248 4.09938Z" fill="#00071C"/>
</svg>
