<svg width="89" height="15" viewBox="0 0 89 15" fill="none" xmlns="http://www.w3.org/2000/svg">
<path fill-rule="evenodd" clip-rule="evenodd" d="M0.794922 11.4316H13.4254L19.3117 0.67798V11.4558H20.9074V10.3813H20.9365C21.4388 11.4099 22.547 11.6664 23.5809 11.6664C25.8412 11.6664 26.8751 9.68526 26.8751 7.58349C26.8751 5.29932 25.7075 3.4235 23.3003 3.4235C22.4436 3.4235 21.4834 3.89245 21.0257 4.64855H20.9959V0.65625H19.3236H19.3123H19.3117H6.6931L0.794922 11.4316ZM23.0791 4.78506C21.6618 4.78506 20.9371 5.88948 20.9371 7.55289C20.9371 9.12569 21.7201 10.3054 23.0791 10.3054C24.6159 10.3054 25.1914 8.91386 25.1914 7.55289C25.1902 6.13132 24.4667 4.78506 23.0785 4.78506H23.0791ZM39.9205 3.4235C38.9158 3.4235 38.0442 3.95306 37.5419 4.81565L37.5127 4.78506V3.63591H35.9171V10.2954C34.9569 10.306 34.8672 10.306 34.794 10.306C34.4837 10.306 34.3951 10.1395 34.3951 9.71585V5.69237C34.3951 4.04426 32.8292 3.4235 31.3369 3.4235C29.6527 3.4235 27.9839 4.01307 27.8661 6.0254H29.5498C29.6241 5.17811 30.2882 4.78506 31.2341 4.78506C31.9136 4.78506 32.8149 4.95216 32.8149 5.84418C32.8149 6.64248 32.1454 6.72744 31.2691 6.83865C31.0332 6.86859 30.7823 6.90043 30.5254 6.9486C29.1075 7.11453 27.5861 7.43286 27.5861 9.38282C27.5861 10.9109 28.8269 11.6664 30.2002 11.6664C31.1015 11.6664 32.1794 11.3793 32.8446 10.715C32.9772 11.4252 33.4653 11.6664 34.1442 11.6664C34.227 11.6664 34.3317 11.6572 34.5059 11.642C34.9217 11.6055 35.7338 11.5343 37.5906 11.4705V11.4552H37.6013V6.84269C37.6013 5.69296 38.3254 4.78506 39.4479 4.78506C40.4378 4.78506 40.9104 5.31462 40.9401 6.53967V11.4552H42.625V6.08601C42.628 4.33199 41.5792 3.42409 39.9241 3.42409L39.9205 3.4235ZM32.7138 8.82325C32.7138 9.91179 31.5617 10.3054 30.8233 10.3054C30.2323 10.3054 29.2716 10.0777 29.2716 9.30691C29.2716 8.39901 29.922 8.12658 30.6461 8.00537C30.8577 7.96643 31.0753 7.9399 31.2904 7.91369C31.8259 7.84842 32.3452 7.78512 32.7138 7.537V8.82266V8.82325ZM49.7003 11.4552H51.296V11.4546V0.65625H49.6123V4.64914H49.582C49.0648 3.78713 48.0012 3.42409 47.0416 3.42409C45.3722 3.42409 43.7326 4.66385 43.7326 7.49229C43.7326 9.83647 44.9002 11.6664 47.3074 11.6664C48.2675 11.6664 49.2283 11.2892 49.6712 10.3966H49.7003V11.4552ZM49.6712 7.53759C49.6712 8.89915 49.0356 10.306 47.5291 10.306L47.5297 10.3054C46.0666 10.3054 45.4168 9.03448 45.4168 7.62821C45.4168 6.22193 45.978 4.78506 47.5589 4.78506C48.8591 4.78506 49.6712 5.81417 49.6712 7.53759ZM57.9878 6.25253C57.8547 5.29991 57.1751 4.78506 56.2447 4.78506C55.3726 4.78506 54.1467 5.25401 54.1467 7.6288C54.1467 8.92975 54.7079 10.306 56.1704 10.306C57.1454 10.306 57.8243 9.63995 57.9872 8.52022H59.6709C59.3606 10.5467 58.1347 11.6664 56.1698 11.6664C53.7769 11.6664 52.4618 9.92768 52.4618 7.6288C52.4618 5.32992 53.7174 3.42409 56.2287 3.42409C58.0015 3.42409 59.5086 4.3314 59.6703 6.25253H57.9878ZM74.8007 4.72445C75.3619 3.92305 76.086 3.4235 77.1936 3.4235L77.1948 3.42526C78.8042 3.42526 79.7494 4.15135 79.7483 6.05718V11.4563H78.064V6.88918C78.064 5.64824 77.9903 4.78623 76.6758 4.78623C75.5385 4.78623 75.051 5.55704 75.051 6.87329V11.4558H73.3673V6.43493C73.3673 5.35992 73.0421 4.78564 72.0231 4.78564C71.1516 4.78564 70.3537 5.51232 70.3537 6.81268V11.4552H70.3193V11.4705C68.4821 11.5342 67.6743 11.6053 67.2593 11.6418C67.0846 11.6572 66.9796 11.6664 66.8966 11.6664C66.2165 11.6664 65.7296 11.4252 65.5964 10.715C64.9318 11.3793 63.8533 11.6664 62.952 11.6664C61.5781 11.6664 60.3373 10.9109 60.3373 9.38282C60.3373 7.43286 61.8593 7.11453 63.2772 6.9486C63.5342 6.90043 63.7852 6.8686 64.0211 6.83866C64.8978 6.72745 65.5673 6.64251 65.5673 5.84418C65.5673 4.95216 64.6666 4.78506 63.9871 4.78506C63.0412 4.78506 62.3759 5.17811 62.3028 6.0254H60.618C60.7363 4.01307 62.4057 3.4235 64.0893 3.4235C65.5816 3.4235 67.1475 4.04426 67.1475 5.69237V9.71585C67.1475 10.1395 67.2355 10.306 67.5458 10.306C67.6196 10.306 67.7093 10.306 68.6695 10.2954V3.63591H70.2657V4.72445H70.3097C70.8121 3.95306 71.447 3.4235 72.6587 3.4235C73.5891 3.4235 74.4606 3.83244 74.8007 4.72445ZM63.5727 10.3054C64.3117 10.3054 65.4638 9.91179 65.4638 8.82325L65.4644 8.82266V7.537C65.0958 7.78515 64.5764 7.84843 64.0406 7.91371C63.8255 7.93992 63.6078 7.96644 63.3961 8.00537C62.6726 8.12658 62.0222 8.39901 62.0222 9.30691C62.0222 10.0777 62.9823 10.3054 63.5727 10.3054ZM81.2708 3.63591H82.8665V4.69444H82.8956C83.3683 3.80243 84.2844 3.42409 85.2594 3.42409C87.6672 3.42409 88.8342 5.29991 88.8342 7.58408C88.8342 9.68584 87.7998 11.667 85.54 11.667C84.565 11.667 83.5157 11.3039 82.9842 10.4425H82.9545V14.3436H81.2702V3.6365L81.2708 3.63591ZM85.0371 4.78506C83.6195 4.78535 82.8956 5.8897 82.8956 7.55289C82.8956 9.12569 83.6786 10.3054 85.0377 10.3054C86.5739 10.3054 87.15 8.91386 87.15 7.55289C87.15 6.19192 86.4253 4.78506 85.0371 4.78506Z" fill="#00071C"/>
</svg>
