<svg width="77" height="22" viewBox="0 0 77 22" fill="none" xmlns="http://www.w3.org/2000/svg">
<path fill-rule="evenodd" clip-rule="evenodd" d="M11.6676 0C5.32207 0 0.177734 4.92486 0.177734 10.9999C0.177734 17.0754 5.32207 22 11.6676 22C18.0136 22 23.1577 17.0754 23.1577 10.9999C23.1577 4.92486 18.0136 0 11.6676 0ZM18.4643 9.75174C14.7606 7.646 8.65147 7.45238 5.11585 8.47984C4.54796 8.64469 3.94756 8.33784 3.77564 7.7943C3.60345 7.25036 3.92368 6.67595 4.49185 6.51071C8.55062 5.33128 15.2975 5.55917 19.5613 7.98227C20.0721 8.27243 20.2396 8.90385 19.9368 9.39196C19.6338 9.88086 18.9738 10.042 18.4643 9.75174ZM18.343 12.8706C18.0833 13.2743 17.532 13.4008 17.1109 13.153C14.0232 11.336 9.31458 10.8095 5.66151 11.8711C5.18788 12.0083 4.6875 11.7525 4.54357 11.2999C4.40088 10.8463 4.66802 10.3682 5.14096 10.2303C9.31403 9.01786 14.5019 9.60502 18.0483 11.6916C18.4694 11.9398 18.6019 12.4679 18.343 12.8706ZM16.9371 15.8659C16.7307 16.1899 16.2898 16.2916 15.9525 16.094C13.2543 14.5153 9.85818 14.1587 5.85868 15.0334C5.47327 15.118 5.0891 14.8866 5.00129 14.5178C4.91293 14.1488 5.15358 13.7812 5.53981 13.697C9.91663 12.7391 13.6711 13.1513 16.6996 14.923C17.0373 15.1204 17.1436 15.5428 16.9371 15.8659Z" fill="#00071C"/>
<path d="M31.4374 10.155C29.4535 9.70192 29.1002 9.38404 29.1002 8.71623C29.1002 8.08521 29.721 7.66054 30.6438 7.66054C31.5384 7.66054 32.4253 7.98315 33.3554 8.64701C33.3835 8.66698 33.4187 8.67512 33.4535 8.66987C33.4882 8.66487 33.5188 8.64662 33.5392 8.61916L34.5079 7.31193C34.5477 7.25807 34.5368 7.18386 34.4832 7.14274C33.3763 6.29235 32.13 5.87898 30.6732 5.87898C28.5311 5.87898 27.0349 7.10964 27.0349 8.87044C27.0349 10.7588 28.3256 11.4273 30.556 11.9433C32.4543 12.362 32.7747 12.7127 32.7747 13.3396C32.7747 14.0344 32.1268 14.4663 31.0842 14.4663C29.9264 14.4663 28.9817 14.0928 27.9251 13.2168C27.8989 13.1953 27.8629 13.1853 27.8297 13.1871C27.7949 13.1899 27.7629 13.2054 27.7407 13.231L26.6546 14.4685C26.609 14.5199 26.6148 14.5966 26.6673 14.641C27.8968 15.6917 29.4087 16.2468 31.0403 16.2468C33.3485 16.2468 34.84 15.0392 34.84 13.1705C34.84 11.5912 33.8544 10.7177 31.4374 10.155Z" fill="#00071C"/>
<path fill-rule="evenodd" clip-rule="evenodd" d="M37.5651 9.43193C38.2417 8.65891 39.0624 8.28179 40.0629 8.28179C41.9218 8.28179 43.8037 9.65208 43.8037 12.2717C43.8037 14.8905 41.9218 16.2605 40.0629 16.2605C39.0626 16.2605 38.2419 15.9053 37.5651 15.1782V18.2298C37.5651 18.2985 37.5069 18.3544 37.4351 18.3544H35.6589C35.5871 18.3544 35.5291 18.2985 35.5291 18.2298V8.56184C35.5291 8.49327 35.5871 8.43732 35.6589 8.43732H37.4351C37.5069 8.43732 37.5651 8.49327 37.5651 8.56184V9.43193ZM39.6517 14.5358C40.8803 14.5358 41.7384 13.6052 41.7384 12.2717C41.7384 10.9594 40.8606 10.0074 39.6517 10.0074C38.437 10.0074 37.5207 10.9805 37.5207 12.2717C37.5207 13.5629 38.437 14.5358 39.6517 14.5358Z" fill="#00071C"/>
<path fill-rule="evenodd" clip-rule="evenodd" d="M48.6276 8.28179C46.2335 8.28179 44.3579 10.0467 44.3579 12.3001C44.3579 14.529 46.2206 16.2754 48.5982 16.2754C51.0008 16.2754 52.8822 14.5164 52.8822 12.2717C52.8822 10.0342 51.0137 8.28179 48.6276 8.28179ZM48.6276 14.5498C47.3542 14.5498 46.3942 13.5702 46.3942 12.2717C46.3942 10.9675 47.321 10.0211 48.5982 10.0211C49.8799 10.0211 50.8463 11.0006 50.8463 12.3001C50.8463 13.604 49.9132 14.5498 48.6276 14.5498Z" fill="#00071C"/>
<path d="M56.0399 8.43735H57.9946C58.0664 8.43735 58.1242 8.49331 58.1242 8.56188V10.0235C58.1242 10.0922 58.0664 10.1481 57.9946 10.1481H56.0399V13.6634C56.0399 14.2187 56.2943 14.4663 56.8641 14.4663C57.2338 14.4663 57.5646 14.3902 57.9068 14.2253C57.9465 14.2066 57.9946 14.2077 58.0333 14.231C58.0716 14.2536 58.0951 14.294 58.0951 14.337V15.7288C58.0951 15.7732 58.0698 15.815 58.0294 15.8367C57.5312 16.1071 57.0025 16.2331 56.3654 16.2331C54.7983 16.2331 54.0038 15.4582 54.0038 13.9299V10.1481H53.1497C53.0781 10.1481 53.0203 10.0922 53.0203 10.0235V8.56188C53.0203 8.49331 53.0781 8.43735 53.1497 8.43735H54.0038V6.52392C54.0038 6.45535 54.0622 6.39939 54.1341 6.39939H55.9102C55.982 6.39939 56.0399 6.45535 56.0399 6.52392V8.43735Z" fill="#00071C"/>
<path d="M64.8052 8.44467V8.20968C64.8052 7.51836 65.0821 7.21008 65.703 7.21008C66.0734 7.21008 66.3708 7.28061 66.7039 7.38688C66.745 7.39923 66.7878 7.39305 66.8211 7.36967C66.8554 7.34616 66.8748 7.30846 66.8748 7.26853V5.83545C66.8748 5.78068 66.838 5.73208 66.783 5.71605C66.431 5.61583 65.9807 5.51285 65.3065 5.51285C63.6657 5.51285 62.7986 6.39752 62.7986 8.06992V8.42983H61.9451C61.8735 8.42983 61.8148 8.48579 61.8148 8.55449V10.0234C61.8148 10.0921 61.8735 10.1481 61.9451 10.1481H62.7986V15.9814C62.7986 16.0501 62.8565 16.1059 62.9281 16.1059H64.7043C64.7761 16.1059 64.8345 16.0501 64.8345 15.9814V10.1481H66.4931L69.0337 15.9798C68.7453 16.5926 68.4617 16.7145 68.0745 16.7145C67.7615 16.7145 67.4319 16.625 67.095 16.4485C67.0633 16.4318 67.0258 16.429 66.9915 16.4392C66.9576 16.4507 66.9291 16.4748 66.9147 16.5064L66.3126 17.771C66.284 17.8307 66.3084 17.9009 66.3685 17.9319C66.997 18.2578 67.5645 18.3969 68.2656 18.3969C69.5773 18.3969 70.3023 17.8118 70.9415 16.2382L74.0232 8.61452C74.0386 8.57616 74.0341 8.53281 74.0095 8.49879C73.9851 8.46503 73.9457 8.44467 73.9026 8.44467H72.0534C71.9981 8.44467 71.9484 8.47843 71.9303 8.52822L70.0359 13.7084L67.961 8.5248C67.9421 8.47659 67.8936 8.44467 67.8397 8.44467H64.8052Z" fill="#00071C"/>
<path d="M59.0808 8.43717H60.8572C60.9288 8.43717 60.9873 8.49312 60.9873 8.56169V15.9812C60.9873 16.0499 60.9288 16.1058 60.8572 16.1058H59.0808C59.0091 16.1058 58.9508 16.0499 58.9508 15.9812V8.56169C58.9508 8.49312 59.0091 8.43717 59.0808 8.43717Z" fill="#00071C"/>
<path d="M59.9773 5.05916C59.2737 5.05916 58.7026 5.60454 58.7026 6.27826C58.7026 6.95237 59.2737 7.4984 59.9773 7.4984C60.6808 7.4984 61.2513 6.95237 61.2513 6.27826C61.2513 5.60454 60.6808 5.05916 59.9773 5.05916Z" fill="#00071C"/>
<path fill-rule="evenodd" clip-rule="evenodd" d="M76.1756 10.2159L75.822 9.74187C76.0022 9.69208 76.1265 9.56625 76.1265 9.36028C76.1265 9.109 75.9259 8.95965 75.6212 8.95965H75.036V10.2159H75.2856V9.78114H75.5592L75.8775 10.2159H76.1756ZM75.2856 9.17507H75.611C75.7735 9.17507 75.8705 9.24443 75.8705 9.37368C75.8705 9.49636 75.7735 9.57242 75.611 9.57242H75.2856V9.17507Z" fill="#00071C"/>
<path fill-rule="evenodd" clip-rule="evenodd" d="M74.2882 9.62562C74.2882 10.282 74.8353 10.8225 75.5383 10.8225C76.2412 10.8225 76.795 10.2753 76.795 9.61879C76.795 8.96294 76.2478 8.42254 75.5449 8.42254C74.8424 8.42254 74.2882 8.96924 74.2882 9.62562ZM74.42 9.62562C74.42 9.02887 74.9046 8.54155 75.5449 8.54155C76.1821 8.54155 76.6635 9.02244 76.6635 9.61879C76.6635 10.2159 76.1785 10.7029 75.5383 10.7029C74.9011 10.7029 74.42 10.2221 74.42 9.62562Z" fill="#00071C"/>
</svg>
