<svg width="95" height="14" viewBox="0 0 95 14" fill="none" xmlns="http://www.w3.org/2000/svg">
<path d="M7.0033 3.88926L3.8927 6.99984L0.782227 3.88926L3.8927 0.779297L7.0033 3.88926Z" fill="#00071C"/>
<path d="M10.1141 6.99967L7.00365 10.1103L10.1141 13.2209L13.2246 10.1103L10.1141 6.99967L13.2245 3.88926L16.3352 6.99984L19.4455 3.88926L16.3352 0.779297L13.2245 3.88926L10.1141 0.779297L7.00365 3.88913L10.1141 6.99967Z" fill="#00071C"/>
<path d="M34.9871 12.9675H32.5741V4.40874H29.4534V2.3406H38.1078V4.40874H34.9871V12.9675Z" fill="#00071C"/>
<path d="M47.7554 2.34075H45.3282V12.9675H47.7554V2.34075Z" fill="#00071C"/>
<path d="M94.7869 10.8705H90.589V2.3406H88.1619V12.9675H94.7869V10.8705Z" fill="#00071C"/>
<path fill-rule="evenodd" clip-rule="evenodd" d="M55.8359 2.3406H59.768C62.6691 2.3406 65.5558 3.87677 65.5558 7.62517C65.5558 11.1584 62.7265 12.9672 59.9117 12.9672L55.8359 12.9674V2.3406ZM58.1911 10.8847H59.6962C61.7212 10.8847 63.0714 9.62146 63.0714 7.6108C63.0714 5.70074 61.7069 4.40874 59.7536 4.40874H58.1911V10.8847Z" fill="#00071C"/>
<path fill-rule="evenodd" clip-rule="evenodd" d="M81.694 12.9675H79.0261L78.2497 10.8707H73.769L72.9858 12.9675H70.3898L74.8105 2.3406H77.3163L81.694 12.9675ZM76.0203 4.82662L74.4196 8.98277H77.6062L76.0203 4.82662Z" fill="#00071C"/>
</svg>
