<svg width="96" height="18" viewBox="0 0 96 18" fill="none" xmlns="http://www.w3.org/2000/svg">
<path d="M69.4361 7.50861C69.0705 9.38457 68.7925 11.674 68.6462 12.6193H68.5439C68.4269 11.6444 68.1489 9.36961 67.7686 7.52358L66.8328 2.92991H63.9807V15.3222H65.7505V5.10714L65.9259 6.06127L67.7249 15.3222H69.4945L71.2642 6.06127L71.4543 5.10153L71.4544 15.3222H73.2241V2.92991H70.3428L69.4361 7.50861Z" fill="#00071C"/>
<path d="M78.007 13.4611C77.846 13.8009 77.495 14.0373 77.144 14.0373C76.7344 14.0373 76.5735 13.7122 76.5735 12.9147V6.26804H74.5554V13.0328C74.5554 14.7019 75.0964 15.4698 76.2957 15.4698C77.1147 15.4698 77.7728 15.1007 78.2262 14.2144H78.2701L78.4455 15.3223H80.0251V6.26804H78.007V13.4611Z" fill="#00071C"/>
<path d="M83.9301 9.84246C83.272 9.35503 82.8626 9.02995 82.8626 8.32116C82.8626 7.81893 83.0966 7.53823 83.6523 7.53823C84.2229 7.53823 84.4128 7.93709 84.4274 9.29603L86.1242 9.22207C86.2557 7.02138 85.539 6.10551 83.6816 6.10551C81.9559 6.10551 81.1076 6.88843 81.1076 8.49831C81.1076 9.96062 81.8096 10.6252 82.9503 11.4967C83.9301 12.2647 84.5006 12.6931 84.5006 13.3135C84.5006 13.7862 84.2081 14.1111 83.6963 14.1111C83.0966 14.1111 82.7456 13.535 82.8333 12.5308L81.1222 12.5602C80.8588 14.436 81.6049 15.529 83.5939 15.529C85.3343 15.529 86.241 14.7167 86.241 13.092C86.241 11.6149 85.5097 11.0241 83.9301 9.84246Z" fill="#00071C"/>
<path d="M89.2833 6.26802H87.3529V15.3222H89.2833V6.26802Z" fill="#00071C"/>
<path d="M88.3328 2.69361C87.5867 2.69361 87.2359 2.97431 87.2359 3.94901C87.2359 4.95347 87.5867 5.20458 88.3328 5.20458C89.0932 5.20458 89.4296 4.95347 89.4296 3.94901C89.4296 3.01851 89.0932 2.69361 88.3328 2.69361Z" fill="#00071C"/>
<path d="M95.777 12.0579L94.0073 11.9694C94.0073 13.5646 93.8319 14.0815 93.2323 14.0815C92.6326 14.0815 92.5301 13.5055 92.5301 11.6297V9.87204C92.5301 8.05525 92.6473 7.47906 93.2467 7.47906C93.8026 7.47906 93.9489 8.02566 93.9489 9.7095L95.7039 9.59134C95.8209 8.1882 95.6454 7.22795 95.1043 6.68152C94.7095 6.28266 94.1097 6.09071 93.2762 6.09071C91.3163 6.09071 90.5119 7.15433 90.5119 10.1379V11.408C90.5119 14.4803 91.1993 15.4698 93.203 15.4698C94.0513 15.4698 94.6363 15.2927 95.0312 14.9088C95.6014 14.377 95.8209 13.4611 95.777 12.0579Z" fill="#00071C"/>
<path d="M29.1437 13.6388C29.2556 13.3434 29.3119 12.8609 29.3119 12.1911V9.36949C29.3119 8.71952 29.2556 8.24432 29.1437 7.9439C29.0314 7.64365 28.8339 7.49319 28.5513 7.49319C28.2781 7.49319 28.0855 7.64365 27.9735 7.9439C27.8612 8.24432 27.8053 8.71952 27.8053 9.36949V12.1911C27.8053 12.8609 27.8587 13.3434 27.9661 13.6388C28.0733 13.9343 28.2683 14.082 28.5513 14.082C28.8339 14.082 29.0314 13.9343 29.1437 13.6388ZM26.8764 15.057C26.4715 14.7814 26.1838 14.353 26.0134 13.7719C25.8426 13.1908 25.7574 12.4177 25.7574 11.4524V10.1376C25.7574 9.16258 25.8547 8.37965 26.0498 7.78885C26.2449 7.19787 26.5495 6.76722 26.9641 6.49622C27.3784 6.22538 27.9222 6.08988 28.5952 6.08988C29.2582 6.08988 29.7896 6.22793 30.1895 6.50353C30.5893 6.77946 30.8819 7.21028 31.0672 7.79616C31.2524 8.38221 31.3452 9.16258 31.3452 10.1376V11.4524C31.3452 12.4177 31.2549 13.1933 31.0745 13.7792C30.894 14.3652 30.6014 14.7937 30.1969 15.0643C29.792 15.335 29.2435 15.4707 28.5513 15.4707C27.8393 15.4707 27.2809 15.3326 26.8764 15.057Z" fill="#00071C"/>
<path d="M58.2008 7.6625C58.0986 7.79052 58.0303 7.99998 57.9963 8.29037C57.9616 8.58093 57.9449 9.02161 57.9449 9.61258V10.2626H59.4222V9.61258C59.4222 9.03164 59.4026 8.59079 59.3639 8.29037C59.3247 7.99012 59.2542 7.77845 59.1518 7.65519C59.0493 7.5321 58.8907 7.47055 58.6764 7.47055C58.4616 7.47055 58.3033 7.53465 58.2008 7.6625ZM57.9449 11.4739V11.9319C57.9449 12.5131 57.9616 12.949 57.9963 13.2394C58.0303 13.5299 58.1008 13.7416 58.2082 13.8745C58.3155 14.0075 58.4809 14.074 58.7055 14.074C59.0075 14.074 59.2151 13.9558 59.3272 13.7195C59.4392 13.4832 59.5001 13.0892 59.51 12.5375L61.2509 12.6409C61.2605 12.72 61.2654 12.8283 61.2654 12.966C61.2654 13.8033 61.0386 14.4285 60.5853 14.8421C60.1319 15.2558 59.4903 15.4627 58.6617 15.4627C57.667 15.4627 56.9697 15.1476 56.5699 14.5172C56.1699 13.887 55.97 12.9121 55.97 11.5921V10.0113C55.97 8.65233 56.1773 7.66012 56.5919 7.03463C57.0064 6.40931 57.7156 6.09665 58.7202 6.09665C59.4126 6.09665 59.9439 6.22467 60.3146 6.48072C60.6851 6.73693 60.9459 7.13562 61.0972 7.67729C61.2484 8.21896 61.324 8.96754 61.324 9.92269V11.4739H57.9449Z" fill="#00071C"/>
<path d="M21.961 11.3044L19.6644 2.92807H21.6684L22.473 6.7247C22.6778 7.66064 22.8289 8.45819 22.9265 9.11802H22.9849C23.0531 8.6452 23.2044 7.85259 23.4384 6.73966L24.2723 2.92807H26.2763L23.9504 11.3044V15.3229H21.961V11.3044Z" fill="#00071C"/>
<path d="M37.8631 6.26702V15.3228H36.2831L36.1077 14.2149H36.0638C35.6345 15.0521 34.9909 15.4705 34.133 15.4705C33.5379 15.4705 33.0992 15.2736 32.8164 14.8797C32.5335 14.4858 32.3923 13.8703 32.3923 13.033V6.26702H34.4108V12.915C34.4108 13.3188 34.4547 13.6068 34.5424 13.779C34.6303 13.9516 34.7766 14.0376 34.9813 14.0376C35.1569 14.0376 35.3251 13.9835 35.486 13.8751C35.647 13.7668 35.7663 13.6291 35.8444 13.4614V6.26702H37.8631Z" fill="#00071C"/>
<path d="M48.2175 6.26703V15.3228H46.6376L46.462 14.2149H46.4182C45.9889 15.0521 45.3453 15.4705 44.4873 15.4705C43.8923 15.4705 43.4536 15.2736 43.1708 14.8797C42.8878 14.4858 42.7467 13.8703 42.7467 13.033V6.26703H44.7652V12.915C44.7652 13.3188 44.8092 13.6068 44.8969 13.779C44.9846 13.9516 45.1309 14.0376 45.3358 14.0376C45.5113 14.0376 45.6795 13.9836 45.8403 13.8751C46.0014 13.7668 46.1208 13.6291 46.1989 13.4614V6.26703H48.2175Z" fill="#00071C"/>
<path d="M43.3482 4.56825H41.3442V15.3228H39.3695V4.56825H37.3655V2.92844H43.3482V4.56825Z" fill="#00071C"/>
<path d="M53.0479 11.4085C53.0479 12.0685 53.021 12.5855 52.9675 12.9596C52.9138 13.3341 52.8235 13.6 52.6969 13.7575C52.57 13.9151 52.3993 13.9938 52.185 13.9938C52.019 13.9938 51.8655 13.9545 51.7242 13.8755C51.5828 13.7969 51.4682 13.6787 51.3805 13.521V8.38002C51.4485 8.13401 51.5655 7.93203 51.7316 7.77442C51.8971 7.61699 52.0774 7.5381 52.2727 7.5381C52.4774 7.5381 52.636 7.61937 52.7481 7.78174C52.8601 7.94427 52.9383 8.21766 52.9821 8.60172C53.0261 8.98579 53.0479 9.53239 53.0479 10.2414V11.4085ZM54.8984 7.71475C54.7764 7.14367 54.5789 6.73002 54.306 6.4738C54.0329 6.21793 53.6573 6.08991 53.1796 6.08991C52.8089 6.08991 52.4628 6.19583 52.1411 6.40733C51.8192 6.61917 51.5707 6.89748 51.3951 7.2421H51.3803L51.3805 2.47043H49.4349V15.3228H51.1023L51.3072 14.4659H51.3512C51.5071 14.7713 51.7411 15.0125 52.0533 15.1898C52.3651 15.367 52.7116 15.4556 53.0919 15.4556C53.7742 15.4556 54.2767 15.1382 54.5986 14.5028C54.9203 13.8676 55.0812 12.8756 55.0812 11.5262V10.0931C55.0812 9.07896 55.0203 8.286 54.8984 7.71475Z" fill="#00071C"/>
<path fill-rule="evenodd" clip-rule="evenodd" d="M9.11863 17.974C14.0265 17.974 18.005 13.9562 18.005 8.99969C18.005 4.04321 14.0265 0.0253906 9.11863 0.0253906C4.2108 0.0253906 0.232422 4.04321 0.232422 8.99969C0.232422 13.9562 4.2108 17.974 9.11863 17.974ZM9.11865 3.54948C6.1384 3.54948 3.72194 5.9899 3.72194 8.99969C3.72194 12.0095 6.1384 14.4499 9.11865 14.4499C12.0989 14.4499 14.5154 12.0095 14.5154 8.99969C14.5154 5.9899 12.0989 3.54948 9.11865 3.54948ZM13.7982 8.99969C13.7982 6.39368 11.6991 4.27375 9.11865 4.27375C6.53822 4.27375 4.4391 6.39368 4.4391 8.99969C4.4391 11.6057 6.53822 13.7256 9.11865 13.7256C11.6991 13.7256 13.7982 11.6057 13.7982 8.99969ZM11.9459 8.99971L7.40183 11.6513V6.34814L11.9459 8.99971Z" fill="#00071C"/>
</svg>
